<?xml version="1.0" encoding="utf-8"?>
<!-- Generator: Adobe Illustrator 16.0.0, SVG Export Plug-In . SVG Version: 6.00 Build 0)  -->
<!DOCTYPE svg PUBLIC "-//W3C//DTD SVG 1.1//EN" "http://www.w3.org/Graphics/SVG/1.1/DTD/svg11.dtd">
<svg version="1.1" id="icon" xmlns="http://www.w3.org/2000/svg" xmlns:xlink="http://www.w3.org/1999/xlink" x="0px" y="0px"
	 width="50px" height="50px" viewBox="0 0 50 50" enable-background="new 0 0 50 50" xml:space="preserve">
<g>
	<g>
		<path fill="#231815" d="M44.69,16.833c-0.096-2.108-0.431-3.548-0.92-4.808c-0.506-1.303-1.184-2.408-2.285-3.509
			c-1.101-1.101-2.206-1.779-3.508-2.285c-1.26-0.49-2.7-0.825-4.809-0.921C31.054,5.213,30.38,5.191,25,5.191
			s-6.054,0.022-8.167,0.119c-2.109,0.096-3.549,0.431-4.809,0.921c-1.303,0.506-2.408,1.184-3.509,2.285s-1.778,2.206-2.285,3.509
			c-0.49,1.26-0.825,2.7-0.921,4.808C5.214,18.945,5.191,19.62,5.191,25s0.023,6.054,0.119,8.167
			c0.096,2.109,0.431,3.549,0.921,4.809c0.506,1.303,1.184,2.407,2.285,3.509c1.101,1.101,2.206,1.778,3.509,2.285
			c1.26,0.49,2.7,0.825,4.809,0.92c2.113,0.097,2.787,0.12,8.167,0.12s6.054-0.023,8.167-0.12c2.108-0.096,3.548-0.431,4.809-0.92
			c1.303-0.506,2.407-1.184,3.508-2.285c1.102-1.102,1.779-2.206,2.285-3.509c0.489-1.26,0.824-2.7,0.92-4.809
			c0.096-2.113,0.119-2.787,0.119-8.167S44.786,18.945,44.69,16.833z M41.149,33.017c-0.088,1.934-0.412,2.984-0.684,3.684
			c-0.359,0.926-0.79,1.587-1.483,2.281c-0.694,0.694-1.355,1.124-2.281,1.484c-0.699,0.272-1.75,0.595-3.684,0.683
			c-2.091,0.096-2.719,0.116-8.017,0.116c-5.297,0-5.925-0.02-8.017-0.116c-1.934-0.088-2.984-0.411-3.684-0.683
			c-0.926-0.36-1.587-0.79-2.281-1.484c-0.694-0.694-1.124-1.355-1.484-2.281c-0.272-0.699-0.595-1.75-0.684-3.684
			C8.756,30.924,8.736,30.297,8.736,25c0-5.297,0.02-5.925,0.115-8.017c0.088-1.935,0.412-2.985,0.684-3.684
			c0.36-0.926,0.79-1.587,1.484-2.281c0.694-0.694,1.355-1.124,2.281-1.484c0.699-0.271,1.75-0.595,3.684-0.683
			C19.075,8.755,19.703,8.735,25,8.735s5.925,0.02,8.017,0.116c1.935,0.088,2.985,0.412,3.684,0.683
			c0.926,0.36,1.587,0.79,2.281,1.484c0.694,0.694,1.124,1.355,1.483,2.281c0.272,0.699,0.596,1.75,0.684,3.684
			c0.095,2.092,0.115,2.719,0.115,8.017C41.264,30.297,41.244,30.924,41.149,33.017z M25,14.834
			c-5.614,0-10.166,4.552-10.166,10.166S19.386,35.166,25,35.166c5.615,0,10.166-4.551,10.166-10.166S30.615,14.834,25,14.834z
			 M25,31.621c-3.657,0-6.621-2.965-6.621-6.621c0-3.657,2.964-6.621,6.621-6.621s6.621,2.964,6.621,6.621
			C31.621,28.656,28.657,31.621,25,31.621z M35.557,12.071c-1.311,0-2.373,1.062-2.373,2.372c0,1.311,1.062,2.373,2.373,2.373
			c1.31,0,2.372-1.062,2.372-2.373C37.928,13.133,36.867,12.071,35.557,12.071z"/>
	</g>
</g>
</svg>
